<svg xmlns="http://www.w3.org/2000/svg" xmlns:xlink="http://www.w3.org/1999/xlink" width="180" height="105" viewBox="0 0 180 105">
  <defs>
    <clipPath id="clip-path">
      <rect id="長方形_4693" data-name="長方形 4693" width="180" height="105" transform="translate(805 450)" fill="#fff" stroke="#707070" stroke-width="1"/>
    </clipPath>
    <clipPath id="clip-path-2">
      <rect id="長方形_4692" data-name="長方形 4692" width="169.524" height="104.262" fill="#bb9b52"/>
    </clipPath>
    <clipPath id="clip-path-3">
      <rect id="長方形_4691" data-name="長方形 4691" width="47.44" height="53.381" fill="#bb9b52"/>
    </clipPath>
  </defs>
  <g id="マスクグループ_4" data-name="マスクグループ 4" transform="translate(-805 -450)" clip-path="url(#clip-path)">
    <g id="グループ_14391" data-name="グループ 14391" transform="translate(810.226 450)">
      <g id="グループ_14390" data-name="グループ 14390" clip-path="url(#clip-path-2)">
        <path id="パス_13212" data-name="パス 13212" d="M0,17.792V53.38H47.44V17.792L23.72,0,0,17.792M40.693,46.631H6.746V21.168L23.72,8.435,40.693,21.168Z" fill="#bb9b52"/>
        <g id="グループ_14389" data-name="グループ 14389" transform="translate(61.039)" style="isolation: isolate">
          <g id="グループ_14388" data-name="グループ 14388">
            <g id="グループ_14387" data-name="グループ 14387" clip-path="url(#clip-path-3)">
              <path id="パス_13213" data-name="パス 13213" d="M188.979,17.792V53.381h6.749V21.168L212.7,8.435l16.971,12.733V53.381h6.748V17.792L212.7,0c-.663.5-23.276,17.459-23.721,17.792" transform="translate(-188.979)" fill="#bb9b52"/>
            </g>
          </g>
        </g>
        <path id="パス_13214" data-name="パス 13214" d="M425.4,35.55V17.792L401.678,0c-.664.5-23.278,17.459-23.722,17.792V53.38H425.4V46.631H384.7V35.55ZM384.7,21.168,401.678,8.435l16.975,12.733V28.8H384.7Z" transform="translate(-255.879)" fill="#bb9b52"/>
        <path id="パス_13215" data-name="パス 13215" d="M452.778,248.17l-2.047-3.41-7.114,4.262-2.873-7.64H448.6V237.4H427.622v3.977H436.2l-11.267,5.08,1.636,3.628L437.857,245l.578,1.536-14.284,6.6,1.667,3.613,14.021-6.476.648,1.721-.036.045-16.486,7.653,1.675,3.608,15-6.964v4.677h-4.421v3.978h8.4v-8.909l6.676,5.362,2.491-3.1L446.1,252.17Z" transform="translate(-287.027 -160.725)" fill="#bb9b52"/>
        <path id="パス_13216" data-name="パス 13216" d="M431.674,197.614v-4.035h-4v4.035l-16.143,7.315v7.392h3.854v-4.587s13.953-6.248,14.286-6.407c.332.159,14.286,6.407,14.286,6.407v4.587h3.855v-7.392Z" transform="translate(-278.612 -131.054)" fill="#bb9b52"/>
        <path id="パス_13217" data-name="パス 13217" d="M309.245,262.073h14.081v-20.22h6.14v20.22h3.97V237.881H309.245Zm3.973-20.22h6.137V258.1h-6.137Z" transform="translate(-209.361 -161.047)" fill="#bb9b52"/>
        <path id="パス_13218" data-name="パス 13218" d="M19.8,212.292H5.33a5.192,5.192,0,0,0-5.186,5.186v25.194a5.192,5.192,0,0,0,5.186,5.187H19.8a5.192,5.192,0,0,0,5.187-5.187V217.478a5.192,5.192,0,0,0-5.187-5.186m.569,30.38a.576.576,0,0,1-.569.568H5.33a.576.576,0,0,1-.568-.568V217.478a.576.576,0,0,1,.568-.568H19.8a.576.576,0,0,1,.569.568Z" transform="translate(-0.097 -143.723)" fill="#bb9b52"/>
        <path id="パス_13219" data-name="パス 13219" d="M120.079,212.292H105.607a5.192,5.192,0,0,0-5.186,5.186v28.071a2.309,2.309,0,1,0,4.618,0V217.478a.576.576,0,0,1,.567-.568h14.472a.576.576,0,0,1,.568.568v28.071a2.309,2.309,0,0,0,4.619,0V217.478a5.192,5.192,0,0,0-5.187-5.186" transform="translate(-67.986 -143.723)" fill="#bb9b52"/>
        <path id="パス_13220" data-name="パス 13220" d="M220.356,212.292H205.885a5.192,5.192,0,0,0-5.187,5.186v25.194a5.192,5.192,0,0,0,5.187,5.186h17.349a2.309,2.309,0,1,0,0-4.618H205.885a.576.576,0,0,1-.568-.568v-10.28h15.04a5.192,5.192,0,0,0,5.186-5.187v-9.728a5.192,5.192,0,0,0-5.186-5.186m.568,14.914a.576.576,0,0,1-.568.568h-15.04v-10.3a.576.576,0,0,1,.568-.568h14.472a.576.576,0,0,1,.568.568Z" transform="translate(-135.874 -143.723)" fill="#bb9b52"/>
      </g>
    </g>
  </g>
</svg>
