<svg xmlns="http://www.w3.org/2000/svg" xmlns:xlink="http://www.w3.org/1999/xlink" width="240" height="125" viewBox="0 0 240 125">
  <defs>
    <clipPath id="clip-path">
      <rect id="長方形_4763" data-name="長方形 4763" width="240" height="125" transform="translate(1160 4330)" fill="#fff" stroke="#707070" stroke-width="1"/>
    </clipPath>
    <clipPath id="clip-path-2">
      <rect id="長方形_4762" data-name="長方形 4762" width="232.722" height="125" fill="none"/>
    </clipPath>
    <clipPath id="clip-path-3">
      <rect id="長方形_4760" data-name="長方形 4760" width="65.125" height="73.277" fill="none"/>
    </clipPath>
  </defs>
  <g id="マスクグループ_14366" data-name="マスクグループ 14366" transform="translate(-1160 -4330)" clip-path="url(#clip-path)">
    <g id="グループ_14442" data-name="グループ 14442" transform="translate(1160 4330)">
      <g id="グループ_14441" data-name="グループ 14441" clip-path="url(#clip-path-2)">
        <path id="パス_13227" data-name="パス 13227" d="M0,24.424V73.276H65.125V24.424C64.517,23.967,33.472.684,32.563,0,31.653.684.609,23.967,0,24.424M55.864,64.012H9.261V29.057l23.3-17.479,23.3,17.479Z" fill="#a6793f"/>
        <g id="グループ_14440" data-name="グループ 14440" transform="translate(83.794)" style="isolation: isolate">
          <g id="グループ_14439" data-name="グループ 14439">
            <g id="グループ_14438" data-name="グループ 14438" clip-path="url(#clip-path-3)">
              <path id="パス_13228" data-name="パス 13228" d="M173.509,24.424V73.276h9.265V29.056l23.3-17.479,23.3,17.479v44.22h9.265V24.424L206.074,0c-.911.684-31.954,23.968-32.565,24.425" transform="translate(-173.509 0.001)" fill="#a6793f"/>
            </g>
          </g>
        </g>
        <path id="パス_13229" data-name="パス 13229" d="M412.153,48.8V24.424C411.542,23.967,380.494.68,379.582,0c-.91.68-31.955,23.967-32.564,24.424V73.276h65.135V64.012H356.282V48.8ZM356.282,29.057l23.3-17.479,23.305,17.479V39.535H356.282Z" transform="translate(-179.43)" fill="#a6793f"/>
        <path id="パス_13230" data-name="パス 13230" d="M17.715,192.463H4.672A4.677,4.677,0,0,0,0,197.136v22.7a4.679,4.679,0,0,0,4.672,4.674H17.715a4.679,4.679,0,0,0,4.675-4.674v-22.7a4.677,4.677,0,0,0-4.675-4.673m.512,27.378a.521.521,0,0,1-.512.515H4.672a.52.52,0,0,1-.51-.515v-22.7a.519.519,0,0,1,.51-.514H17.715a.521.521,0,0,1,.512.514Z" transform="translate(0 -99.516)" fill="#a6793f"/>
        <path id="パス_13231" data-name="パス 13231" d="M78.157,192.462H65.114a4.677,4.677,0,0,0-4.674,4.673v25.3a2.081,2.081,0,0,0,4.162,0v-25.3a.519.519,0,0,1,.512-.513H78.157a.521.521,0,0,1,.511.513v25.3a2.081,2.081,0,0,0,4.162,0v-25.3a4.678,4.678,0,0,0-4.674-4.673" transform="translate(-31.251 -99.515)" fill="#a6793f"/>
        <path id="パス_13232" data-name="パス 13232" d="M138.6,192.462H125.555a4.679,4.679,0,0,0-4.674,4.673v22.7a4.681,4.681,0,0,0,4.674,4.675H141.19a2.08,2.08,0,1,0,0-4.16H125.555a.521.521,0,0,1-.512-.515v-9.264H138.6a4.679,4.679,0,0,0,4.673-4.676v-8.765a4.676,4.676,0,0,0-4.673-4.673m.512,13.439a.517.517,0,0,1-.512.51H125.043v-9.275a.521.521,0,0,1,.512-.513H138.6a.521.521,0,0,1,.512.513Z" transform="translate(-62.503 -99.515)" fill="#a6793f"/>
        <path id="パス_13233" data-name="パス 13233" d="M188.96,202.113v-4.218h22.509v4.218h-9.027v18.528H212.3v4.217H188.25v-4.217h9.894V202.113Z" transform="translate(-97.337 -102.324)" fill="#a6793f"/>
        <path id="パス_13234" data-name="パス 13234" d="M256.3,200.725v-4.218h20.578a31.813,31.813,0,0,1-2.267,7.175,53.785,53.785,0,0,1-3.883,7.293,55.022,55.022,0,0,0,3.824,4.848,45.66,45.66,0,0,0,4.1,3.982v5.361q-.591-.433-2.306-1.833a43.85,43.85,0,0,1-3.686-3.43,51.559,51.559,0,0,1-4.494-5.5,49.141,49.141,0,0,1-5.479,5.893,35.146,35.146,0,0,1-4.534,3.449,30.713,30.713,0,0,1-3.311,1.853v-4.73a33.794,33.794,0,0,0,5.854-4.375,46.117,46.117,0,0,0,5.676-6.465,36.4,36.4,0,0,0,4.829-9.3Z" transform="translate(-131.77 -101.607)" fill="#a6793f"/>
        <path id="パス_13235" data-name="パス 13235" d="M321.192,210.49V206.43H345v4.061h-8.2a18.21,18.21,0,0,1-2.01,7.43,13.627,13.627,0,0,1-3.646,4.12,16.707,16.707,0,0,1-4.4,2.326,18.931,18.931,0,0,1-4.455.985v-4.218a12.626,12.626,0,0,0,4.4-1.163,10.458,10.458,0,0,0,3.823-3.055q1.636-2.049,1.952-6.425Zm1.1-14.309h21.642v4.139H322.3Z" transform="translate(-166.077 -101.438)" fill="#a6793f"/>
        <rect id="長方形_4761" data-name="長方形 4761" width="17.345" height="4.297" transform="translate(185.701 106.45)" fill="#a6793f"/>
        <path id="パス_13236" data-name="パス 13236" d="M438.49,224.547V193.405H442.9v10.722h15.512v4.3H442.9v16.122Z" transform="translate(-226.727 -100.003)" fill="#a6793f"/>
      </g>
    </g>
  </g>
</svg>
