<svg id="グループ_2854" data-name="グループ 2854" xmlns="http://www.w3.org/2000/svg" width="320" height="136.337" viewBox="0 0 320 136.337">
  <path id="パス_9440" data-name="パス 9440" d="M108.725,0V53.268l11.67,11.65h35.577l-3.05-14.028H127.349l-4.739-4.731V0Z" transform="translate(164.027)" fill="#fff"/>
  <path id="パス_9441" data-name="パス 9441" d="M52.984,14.031h22.2l10.8,10.8V40.091l-10.8,10.8h-22.2ZM35.637,0l3.316,7.666V57.25l-3.316,7.669H81l19.013-19.01V19.018L81,0Z" transform="translate(53.763)" fill="#fff"/>
  <path id="パス_9442" data-name="パス 9442" d="M14.028,40.091V24.828l10.8-10.8H40.1l10.795,10.8V40.091L40.1,50.89H24.83ZM19.018,0,0,19.013v26.9l19.018,19.01H45.906l19.01-19.01v-26.9l-14.9-14.9L51.8,0Z" fill="#fff"/>
  <path id="パス_9443" data-name="パス 9443" d="M86.1,40.091V24.828l10.8-10.8h15.265l10.8,10.8V40.091l-10.8,10.8H96.9ZM91.09,0,72.072,19.013v26.9L91.09,64.918h26.885L137,45.908v-26.9l-14.9-14.9L123.873,0Z" transform="translate(108.73)" fill="#fff"/>
  <rect id="長方形_15" data-name="長方形 15" width="3.038" height="6.081" transform="translate(118.089 112.114)" fill="#fff"/>
  <rect id="長方形_16" data-name="長方形 16" width="3.033" height="6.078" transform="translate(122.64 112.068)" fill="#fff"/>
  <path id="パス_9444" data-name="パス 9444" d="M82.739,62.824l-.391,3.138H76.676v6.071H81.6l-1.869,15.1h6.063l1.866-15.1h7.2v15.1h6.061V65.962H88.416l.379-3.138Z" transform="translate(115.676 49.199)" fill="#fff"/>
  <path id="パス_9445" data-name="パス 9445" d="M94.466,62.823h-.025l-5.449,15.25h6.061l3.281-9.167H106.6l-5.893,18.185h6.063l7.862-24.269Z" transform="translate(134.257 49.198)" fill="#fff"/>
  <path id="パス_9446" data-name="パス 9446" d="M43.5,62.824v3.138H28.346v6.071h5.062l-5.062,15.1H34.41l5.065-15.1H43.5v15.1h6.056v-15.1h3.03V65.962h-3.03V62.824Z" transform="translate(42.764 49.199)" fill="#fff"/>
  <path id="パス_9447" data-name="パス 9447" d="M40.427,62.824V87.137H46.49V75.021l18.188,3.05V72L46.49,68.947V62.824Z" transform="translate(60.99 49.199)" fill="#fff"/>
  <path id="パス_9448" data-name="パス 9448" d="M54.776,62.824,52.51,87.132h6.066l2.26-24.309Z" transform="translate(79.219 49.199)" fill="#fff"/>
  <path id="パス_9449" data-name="パス 9449" d="M57.344,62.824V87.137H69.471V81.056H63.408V62.824Z" transform="translate(86.512 49.199)" fill="#fff"/>
  <path id="パス_9450" data-name="パス 9450" d="M70.658,62.823l.773,3.035H64.592v6.086h8.4l.785,3.035H64.592v6.078H75.337L76.9,87.139h6.061L81.4,81.058h7.441V74.98h-9l-.79-3.035h9.786V65.858H77.5l-.778-3.035Z" transform="translate(97.446 49.198)" fill="#fff"/>
</svg>
