<svg xmlns="http://www.w3.org/2000/svg" width="30.41" height="30.41" viewBox="0 0 30.41 30.41">
  <path id="前面オブジェクトで型抜き_2" data-name="前面オブジェクトで型抜き 2" d="M15.205,30.41A15.209,15.209,0,0,1,9.287,1.195a15.209,15.209,0,0,1,11.837,28.02A15.11,15.11,0,0,1,15.205,30.41Zm.234-21.833c-.062,0-6.26,0-7.8.42a2.511,2.511,0,0,0-1.765,1.777,26.46,26.46,0,0,0-.417,4.836,26.464,26.464,0,0,0,.417,4.836A2.457,2.457,0,0,0,7.64,22.194c1.54.415,7.737.42,7.8.42s6.26,0,7.8-.42A2.455,2.455,0,0,0,25,20.446a26.471,26.471,0,0,0,.417-4.836A26.467,26.467,0,0,0,25,10.774,2.51,2.51,0,0,0,23.239,9C21.7,8.582,15.5,8.577,15.439,8.577Zm-2.041,10h0V12.641l5.218,2.968L13.4,18.577Z" fill="#fff"/>
</svg>
