<svg id="グループ_2602" data-name="グループ 2602" xmlns="http://www.w3.org/2000/svg" width="30.41" height="30.409" viewBox="0 0 30.41 30.409">
  <path id="パス_9429" data-name="パス 9429" d="M14.557,2.094a2.821,2.821,0,0,0-.681-1.047A2.821,2.821,0,0,0,12.83.366,5.036,5.036,0,0,0,11.14.053C10.18.009,9.892,0,7.462,0S4.744.009,3.784.053a5.037,5.037,0,0,0-1.69.313,2.819,2.819,0,0,0-1.047.681A2.821,2.821,0,0,0,.367,2.094a5.04,5.04,0,0,0-.313,1.69C.009,4.743,0,5.031,0,7.462s.009,2.718.053,3.678a5.04,5.04,0,0,0,.313,1.69,2.82,2.82,0,0,0,.681,1.046,2.82,2.82,0,0,0,1.047.681,5.038,5.038,0,0,0,1.69.313c.959.044,1.247.053,3.678.053s2.718-.009,3.678-.053a5.037,5.037,0,0,0,1.69-.313,3.014,3.014,0,0,0,1.727-1.727,5.04,5.04,0,0,0,.313-1.69c.044-.96.053-1.248.053-3.678s-.009-2.718-.053-3.678A5.04,5.04,0,0,0,14.557,2.094Zm-7.1,10.042a4.674,4.674,0,1,1,4.674-4.674A4.674,4.674,0,0,1,7.462,12.135ZM12.32,3.7A1.092,1.092,0,1,1,13.412,2.6,1.092,1.092,0,0,1,12.32,3.7Z" transform="translate(7.743 7.743)" fill="#fff"/>
  <ellipse id="楕円形_20" data-name="楕円形 20" cx="3.034" cy="3.034" rx="3.034" ry="3.034" transform="translate(12.171 12.171)" fill="#fff"/>
  <path id="パス_9430" data-name="パス 9430" d="M15.2,0a15.2,15.2,0,1,0,15.2,15.2A15.2,15.2,0,0,0,15.2,0Zm9.047,18.957a6.674,6.674,0,0,1-.423,2.209,4.653,4.653,0,0,1-2.662,2.662,6.679,6.679,0,0,1-2.209.423c-.971.044-1.281.055-3.753.055s-2.782-.01-3.753-.055a6.678,6.678,0,0,1-2.209-.423,4.653,4.653,0,0,1-2.662-2.662,6.677,6.677,0,0,1-.423-2.209C6.114,17.986,6.1,17.676,6.1,15.2s.01-2.782.055-3.753a6.677,6.677,0,0,1,.423-2.209A4.653,4.653,0,0,1,9.243,6.581a6.678,6.678,0,0,1,2.209-.423c.971-.044,1.281-.055,3.753-.055s2.782.01,3.753.055a6.679,6.679,0,0,1,2.209.423,4.653,4.653,0,0,1,2.662,2.662,6.674,6.674,0,0,1,.423,2.209c.044.971.055,1.281.055,3.753S24.3,17.986,24.251,18.957Z" fill="#fff"/>
</svg>
