<svg xmlns="http://www.w3.org/2000/svg" width="30.525" height="30.525" viewBox="0 0 30.525 30.525">
  <g id="グループ_4547" data-name="グループ 4547" transform="translate(-1108.473 -6460.951)">
    <path id="パス_9987" data-name="パス 9987" d="M15.263,0A15.263,15.263,0,1,0,30.525,15.261,15.263,15.263,0,0,0,15.263,0m3.96,24.416-4.632-6.741-5.8,6.741h-1.5L13.925,16.7,7.293,7.052h5.059l4.386,6.383,5.492-6.383h1.5L17.4,14.4h0l6.879,10.01Z" transform="translate(1108.473 6460.953)" fill="#fff"/>
    <path id="パス_9988" data-name="パス 9988" d="M665.739,584.1l-4.315-6.172h-2.3l5.347,7.648.672.961h0l4.577,6.547h2.3l-5.609-8.023Z" transform="translate(458.601 5891.207)" fill="#fff"/>
  </g>
</svg>
