<svg xmlns="http://www.w3.org/2000/svg" width="39" height="39" viewBox="0 0 39 39">
  <g id="グループ_4584" data-name="グループ 4584" transform="translate(-100 -276)">
    <path id="パス_9429" data-name="パス 9429" d="M736.1,132.939a3.91,3.91,0,0,0-2.241-2.241,6.534,6.534,0,0,0-2.193-.407c-1.245-.057-1.619-.069-4.772-.069s-3.526.012-4.772.069a6.535,6.535,0,0,0-2.193.407,3.911,3.911,0,0,0-2.241,2.241,6.54,6.54,0,0,0-.407,2.193c-.057,1.245-.069,1.619-.069,4.772s.012,3.526.069,4.772a6.539,6.539,0,0,0,.407,2.193,3.911,3.911,0,0,0,2.241,2.241,6.536,6.536,0,0,0,2.193.407c1.245.057,1.618.069,4.772.069s3.527-.012,4.772-.069a6.535,6.535,0,0,0,2.193-.407,3.91,3.91,0,0,0,2.241-2.241,6.539,6.539,0,0,0,.407-2.193c.057-1.245.069-1.619.069-4.772s-.012-3.526-.069-4.772A6.539,6.539,0,0,0,736.1,132.939ZM726.9,145.967a6.064,6.064,0,1,1,6.064-6.064A6.064,6.064,0,0,1,726.9,145.967Zm6.3-10.95a1.417,1.417,0,1,1,1.417-1.417A1.417,1.417,0,0,1,733.2,135.017Z" transform="translate(-607.397 155.823)"/>
    <ellipse id="楕円形_20" data-name="楕円形 20" cx="3.936" cy="3.936" rx="3.936" ry="3.936" transform="translate(115.564 291.791)"/>
    <path id="パス_9430" data-name="パス 9430" d="M611.3,4.805a19.5,19.5,0,1,0,19.5,19.5A19.5,19.5,0,0,0,611.3,4.805Zm11.6,24.313a8.56,8.56,0,0,1-.542,2.833,5.967,5.967,0,0,1-3.414,3.414,8.565,8.565,0,0,1-2.833.543c-1.245.057-1.642.07-4.813.07s-3.568-.013-4.813-.07a8.564,8.564,0,0,1-2.833-.543,5.967,5.967,0,0,1-3.414-3.414,8.564,8.564,0,0,1-.542-2.833c-.057-1.245-.07-1.642-.07-4.813s.013-3.568.07-4.813a8.564,8.564,0,0,1,.542-2.833,5.968,5.968,0,0,1,3.414-3.414,8.564,8.564,0,0,1,2.833-.543c1.245-.057,1.643-.07,4.813-.07s3.568.013,4.813.07a8.566,8.566,0,0,1,2.833.543,5.968,5.968,0,0,1,3.414,3.414,8.56,8.56,0,0,1,.542,2.833c.057,1.245.07,1.642.07,4.813S622.958,27.873,622.9,29.118Z" transform="translate(-491.799 271.195)"/>
  </g>
</svg>
