<svg xmlns="http://www.w3.org/2000/svg" xmlns:xlink="http://www.w3.org/1999/xlink" width="82.046" height="157.839" viewBox="0 0 82.046 157.839">
  <defs>
    <clipPath id="clip-path">
      <rect id="長方形_32" data-name="長方形 32" width="157.839" height="82.046"/>
    </clipPath>
  </defs>
  <g id="グループ_2610" data-name="グループ 2610" transform="translate(82.046) rotate(90)" clip-path="url(#clip-path)">
    <path id="パス_9473" data-name="パス 9473" d="M45.908,1.259H8.845A14.63,14.63,0,0,1,4.866.7C3.121.1,1-.559.748.8A54.573,54.573,0,0,0,.021,11.04c.032.747.135,1.494,1.019,1.494.611,0,2.61-.271,4.144-.271h38.73c3.821,0,7.865.846,7.145,8.046-.611,6.118-1.944,8.1-3.1,11.577a2.045,2.045,0,0,0,1,2.769c1.163.554,3.588,1.5,5.1,2.05s2.726.354,3.323-.831A33.121,33.121,0,0,0,60.7,26.18c.927-5.007,1.1-11.039-.11-15.031-2.084-6.886-8-9.891-14.678-9.891" transform="translate(96.397 33.839)"/>
    <path id="パス_9474" data-name="パス 9474" d="M0,1.971c0,3.056.2,6.113.2,9.1,0,0,.09,8.743,0,10.519-.063,1.222.5,1.641,2.283,1.948a16.361,16.361,0,0,1,5.379,2.355c1.6,1.009,2.21.258,2.164-1.145-.064-1.941-.113-13.676-.113-13.676,0-3.057.2-6.045.2-9.1C10.121.136,9.306,0,7,0H3.057C.747,0,0,.136,0,1.971" transform="translate(145.797 9.966)"/>
    <path id="パス_9475" data-name="パス 9475" d="M6.677,0A6.677,6.677,0,1,1,0,6.677,6.677,6.677,0,0,1,6.677,0M4.287,6.677A2.391,2.391,0,1,0,6.677,4.287,2.391,2.391,0,0,0,4.287,6.677" transform="translate(113.76 17.716)"/>
    <path id="パス_9476" data-name="パス 9476" d="M10.46,22.631c-2.31,0-4.619.135-6.929.135C.95,22.766,0,21.747,0,19.235c0-2.038.2-3.347.2-5.385V9.707c0-1.9-.2-2.3-.2-3.934C0,2.241,2.445,0,4.483,0,7,0,17.863,4.279,20.716,5.433a3.456,3.456,0,0,0,1.358.408,1.578,1.578,0,0,0,1.019-.475A31.26,31.26,0,0,1,39.667.135c3.056,0,5.2.015,8.145,2.579a8.221,8.221,0,0,1,2.451,6.245c0,2.174-.272,3.26-1.766,3.94a.508.508,0,0,0-.408.475c0,.408.34.408.679.408,3.125,0,6.249-.2,9.374-.2,1.7,0,1.9.611,1.9,2.717v3.686c0,2.106-.135,2.853-1.834,2.853-3.26,0-6.589-.2-9.849-.2Zm-1.631-9.6a.753.753,0,0,0,.747.747h6.929c.408,0,.679-.068.679-.475,0-.611-1.019-.747-1.495-.883a53.186,53.186,0,0,0-5.977-1.359c-.679,0-.884.339-.884.95Zm30.837.747c.34,0,.475-.135.475-.408,0-.136-.068-.2-.135-.339a1.37,1.37,0,0,1-.2-.747c0-.475.135-1.291.135-1.63,0-.816-.679-1.019-2.988-1.019-3.872,0-12.023,2.785-12.023,3.735,0,.34.271.408.611.408Z" transform="translate(0.136 7.514)"/>
    <path id="パス_9477" data-name="パス 9477" d="M6.572,8.081c0-1.12-.05-2.8-.05-3.539s0-1.967.019-3.266C6.557.263,6.135,0,4.964,0H1.737C.514,0-.05.3,0,1.324.065,2.5.065,3.815.065,4.541s0,2.5-.034,3.539C-.009,9.266.558,9.354,2.05,9.354H4.6c1.493,0,1.979-.088,1.976-1.273" transform="translate(36.148 41.42)"/>
    <path id="パス_9478" data-name="パス 9478" d="M6.572,6.554c0-1.12-.05-1.343-.05-2.086s0-1.894.02-3.192C6.557.263,6.135,0,4.965,0H1.737C.515,0-.05.3,0,1.323.065,2.5.065,3.741.065,4.468s0,1.044-.034,2.086c-.04,1.185.527,1.273,2.02,1.273H4.6c1.493,0,1.979-.088,1.976-1.273" transform="translate(22.434 62.918)"/>
    <path id="パス_9479" data-name="パス 9479" d="M6.572,6.554c0-1.12-.05-1.343-.05-2.086s0-1.894.02-3.192C6.557.263,6.135,0,4.965,0H1.737C.515,0-.05.3,0,1.323.065,2.5.065,3.741.065,4.468s0,1.044-.034,2.086c-.04,1.185.527,1.273,2.02,1.273H4.6c1.493,0,1.979-.088,1.976-1.273" transform="translate(0.071 62.918)"/>
    <path id="パス_9480" data-name="パス 9480" d="M6.571,9.1c0-1.12-.05-2.694-.05-3.437s0-3.088.02-4.386C6.556.263,6.135,0,4.964,0H1.736C.514,0-.051.3,0,1.323.064,2.5.064,4.934.064,5.661s0,2.4-.034,3.437c-.04,1.185.527,1.273,2.02,1.273H4.6c1.493,0,1.979-.088,1.976-1.273" transform="translate(11.22 62.918)"/>
    <path id="パス_9481" data-name="パス 9481" d="M1.562.006C.448-.059,0,.435,0,1.278V4.956c0,.877.582,1.252,1.6,1.2,2.429-.122,10.142,0,10.142,0,4.434,0,6.711,2.277,6.711,6.032,0,.027,0,.053,0,.08s0,.053,0,.08c0,3.755-2.276,6.032-6.711,6.032,0,0-7.713.122-10.142,0-1.014-.051-1.6.325-1.6,1.2v3.677C0,24.1.448,24.6,1.562,24.533c2.767-.16,9.936,0,9.936,0,8.469,0,12.623-4.754,12.623-12.264S19.967.006,11.5.006c0,0-7.169.159-9.936,0" transform="translate(35.786 33.923)"/>
    <path id="パス_9482" data-name="パス 9482" d="M11.173,1.324c.076,1.085.159,9.718.159,9.718,0,1.975-.132,4.028-.132,6,0,1.185.527,1.273,2.019,1.273h2.546c1.493,0,1.975-.088,1.975-1.273,0-1.155-.043-2.349-.081-3.53-.036-1.056.547-1.064.977-1.064h2.287c.543,0,1.652-.05,1.652.883v6.323c0,.815-.317,1.077-1.086,1.11s-5.086,0-6.518,0-6.864-.064-7.507-.134a.915.915,0,0,1-.884-1.025V13.335c0-.97,1.086-.9,1.7-.883,1,.029,1.395-.273,1.395-1.177V5.489c0-1.234-.819-1.352-1.534-1.4S5.569,4.1,3.872,4.1C1.7,4.1,0,4.437,0,6.95c0,1.834.136,3.668.136,5.5V22.714c0,2.174-.127,3.567-.136,4.451-.012,1.261.544,2.013,2.716,2.013,0,0,8.058.041,10.715.041s12.831.3,12.831.3c1.982.025,2.883-.371,2.847-1.849-.025-1.045-.038-2.3-.038-2.847,0-.95-.069-4.9-.069-6.352V13.339a.83.83,0,0,1,.723-.939c.525-.126.636-.785.636-2.125V7.357c0-2.853-.2-3.328-2.309-3.328-1.9,0-4.28.135-6.521.135H18.664c-.575,0-1.041-.348-1.008-1.333.014-.729.032-1.295.054-1.556C17.8.267,17.3,0,16.133,0H12.906c-1.223,0-1.8.3-1.734,1.324" transform="translate(0 32.286)"/>
    <path id="パス_9483" data-name="パス 9483" d="M1.383.034C.631-.149,0,.407,0,1.59V6.276c0,.895.358,1.5,1.166,1.646a25.243,25.243,0,0,1,3,.827A34.444,34.444,0,0,1,17.8,17.035a2.511,2.511,0,0,0,2.1.884c1.139-.19,3.51-3.612,3.652-5.032a2.4,2.4,0,0,0-.685-1.96A30.028,30.028,0,0,0,13.184,4.1,77.309,77.309,0,0,0,1.383.034" transform="translate(30.133 53.818)"/>
    <path id="パス_9484" data-name="パス 9484" d="M0,8.96a8.743,8.743,0,0,0,8.743,9.009h.048a8.662,8.662,0,0,0,8.695-8.96A8.742,8.742,0,0,0,8.743,0H8.695A8.661,8.661,0,0,0,0,8.96M8.791,3.888A5.056,5.056,0,0,1,14.057,8.96a5.137,5.137,0,0,1-5.313,5.121H8.695A5.057,5.057,0,0,1,3.43,9.009,5.137,5.137,0,0,1,8.743,3.888Z" transform="translate(69.556 64.077)"/>
    <path id="パス_9485" data-name="パス 9485" d="M0,8.96a8.743,8.743,0,0,0,8.743,9.009h.048a8.662,8.662,0,0,0,8.695-8.96A8.742,8.742,0,0,0,8.743,0H8.695A8.661,8.661,0,0,0,0,8.96M8.791,3.888A5.056,5.056,0,0,1,14.057,8.96a5.137,5.137,0,0,1-5.313,5.121H8.695A5.057,5.057,0,0,1,3.43,9.009,5.137,5.137,0,0,1,8.743,3.888Z" transform="translate(69.556 24.66)"/>
    <path id="パス_9486" data-name="パス 9486" d="M0,.69V3.028a.693.693,0,0,0,.691.691H16.215a.693.693,0,0,0,.691-.691V.69A.693.693,0,0,0,16.215,0H.691A.693.693,0,0,0,0,.69" transform="translate(69.845 0)"/>
    <path id="パス_9487" data-name="パス 9487" d="M0,8.985v5.9a.693.693,0,0,0,.691.691H16.215a.693.693,0,0,0,.691-.691v-5.9C16.907,3.671,13.212,0,8.453,0H8.4C3.647,0,0,3.671,0,8.985m8.5-5.1a4.817,4.817,0,0,1,5.048,5.1v2.183a.693.693,0,0,1-.691.691H4.048a.693.693,0,0,1-.691-.691V8.985a4.856,4.856,0,0,1,5.1-5.1Z" transform="translate(69.845 45.189)"/>
    <path id="パス_9488" data-name="パス 9488" d="M13.436,2.085l-.791.542-1.206.825c-.314.214-.652.181-.861-.282l0,0A5.194,5.194,0,0,0,5.628.219H5.579C2.1.219,0,2.61,0,6.6v7.037a.693.693,0,0,0,.691.691H16.215a.693.693,0,0,0,.691-.691V11.3a.693.693,0,0,0-.691-.691H12.188a.693.693,0,0,1-.691-.691V8.373A1.152,1.152,0,0,1,12.071,7.3l4.261-2.854a1.451,1.451,0,0,0,.574-1.075V.4c0-.379-.256-.516-.57-.3ZM8.212,9.063v.85a.693.693,0,0,1-.691.691H4.048a.693.693,0,0,1-.691-.691v-3c0-1.811.822-2.922,2.415-2.922h.049c1.425,0,2.391,1.039,2.391,2.85Z" transform="translate(69.845 7.027)"/>
  </g>
</svg>
