<svg id="グループ_2679" data-name="グループ 2679" xmlns="http://www.w3.org/2000/svg" xmlns:xlink="http://www.w3.org/1999/xlink" width="451.111" height="164" viewBox="0 0 451.111 164">
  <defs>
    <clipPath id="clip-path">
      <rect id="長方形_673" data-name="長方形 673" width="451.111" height="164" fill="none"/>
    </clipPath>
  </defs>
  <g id="グループ_2836" data-name="グループ 2836" clip-path="url(#clip-path)">
    <path id="パス_9604" data-name="パス 9604" d="M207.029,79.992l.5.4c-.1.048-.16.1-.212.1a1.051,1.051,0,0,0-1.008.453c-.324.407-.687.786-.991,1.206a1.871,1.871,0,0,0-.267.7,1.519,1.519,0,0,1-.523,1c-.087.064-.2.19-.191.269.077.474-.421.85-.2,1.361.058.134-.081.405-.2.551a.926.926,0,0,0-.194.894.775.775,0,0,1-.356.894c-.4.237-.434.611-.515.982-.029.132.031.312-.039.4a2.652,2.652,0,0,0-.55,1.559,11.345,11.345,0,0,1-.4,1.718,4.388,4.388,0,0,1-.445,1.422,3.192,3.192,0,0,0-.209,1.036c-.109.556-.21,1.115-.342,1.666-.115.478-.275.946-.4,1.422a4.6,4.6,0,0,0-.11.6c-.035.267.005.561-.349.671-.066.021-.127.134-.146.214-.132.576-.263,1.154-.375,1.734-.12.625-.208,1.255-.333,1.879a.922.922,0,0,1-.237.474.727.727,0,0,0-.21.589,4.334,4.334,0,0,1-.343,1.073c-.064.189-.213.4-.174.566a4.605,4.605,0,0,1-.348,2.715,4.3,4.3,0,0,0-.2,1.213,2.47,2.47,0,0,1-.329,1.1,2.491,2.491,0,0,0-.305,1.1,2.962,2.962,0,0,1-.39,1.223,1.862,1.862,0,0,0-.256.82,2.347,2.347,0,0,1-.351,1.358c-.081.1-.058.3-.057.453a4.243,4.243,0,0,1,.029.75c-.182,1-.395,2-.6,2.994a1.49,1.49,0,0,1-.115.463c-.771,1.284-.47,2.635-.274,3.982.029.2.058.394.1.65a1.207,1.207,0,0,0,.379-.159,2.266,2.266,0,0,0,.417-.535c.659-1.273,1.871-2.09,2.672-3.249.242-.348.548-.729,1.141-.453.347.161.839-.364.708-.846-.2-.755-.045-1.219.7-1.506a.746.746,0,0,0,.347-.488,7.542,7.542,0,0,1,1.008-1.936,1.743,1.743,0,0,1,1.437-.89.894.894,0,0,0,.751-.493,8.3,8.3,0,0,0,1.027-2.351,3.952,3.952,0,0,1,1.07-2,1.249,1.249,0,0,1,.8-.326.764.764,0,0,0,.659-.373c.183-.223.474-.356.622-.59.305-.035.61-.077.916-.1a1.347,1.347,0,0,1,.319.049c.151.026.328.119.449.071.476-.193.742.068.963.407a1.987,1.987,0,0,1,.373,2.156c-.031.059-.08.155-.056.189.282.416.058.871.111,1.3a2.384,2.384,0,0,1-.012.381c-.011.286-.04.572-.028.856a4.644,4.644,0,0,1,.077,1.138,7.086,7.086,0,0,0-.108,1.417,2.841,2.841,0,0,1-.223,1.194,2.749,2.749,0,0,0-.052,1.01c-.01.34-.029.68-.035,1.02,0,.3,0,.591.007.885.015.569.049,1.137.049,1.706,0,.592-.04,1.183-.041,1.775a1.039,1.039,0,0,0,.108.6,1.488,1.488,0,0,1,.228,1.113,7.722,7.722,0,0,0,.432,2.872c.118.372.364.695.278,1.117.487.512.7,1.272,1.435,1.561a.729.729,0,0,1,.3.162c.628.765,1.449.524,2.21.383a3.623,3.623,0,0,0,1.751-.682,1.35,1.35,0,0,1,.953-.248,8.89,8.89,0,0,0,2.155-.33c.2-.018.384-.3.564-.467.131-.124.223-.348.369-.387.582-.155.9-.658,1.346-.979a2.016,2.016,0,0,0,.665-2.492,4.9,4.9,0,0,1-.329-2.949,16.293,16.293,0,0,1,.882-3.065,6.551,6.551,0,0,1,.9-1.322,2.242,2.242,0,0,0,.554-1.426.945.945,0,0,1,.086-.524c.335-.412.312-.949.562-1.4a12.655,12.655,0,0,1,1.063-2.019c.406-.5.62-1.162,1.018-1.673a7.147,7.147,0,0,1,1.491-1.476,1.64,1.64,0,0,0,.759-.9,1.986,1.986,0,0,1,.751-1.02,17.089,17.089,0,0,0,1.267-1.242c.361-.376.682-.791,1.056-1.152a.981.981,0,0,1,.59-.261,3.034,3.034,0,0,1,1.7.381.668.668,0,0,0,.308.118,4.454,4.454,0,0,1,2.329.585,2.209,2.209,0,0,0,.732.108c.532.084,1.124-.145,1.594.243.812.67,1.779,1.2,2.175,2.266.077.206.193.525.1.641-.271.342-.173.6-.008.929a1.587,1.587,0,0,1-.1,1.333,8.909,8.909,0,0,0-.358,3.368c0,.328-.075.654-.1.982a4.088,4.088,0,0,0,.722,2.276,6.356,6.356,0,0,0,.915,1.231,3.389,3.389,0,0,0,1.588.873,4.516,4.516,0,0,0,2.742-.218,2.205,2.205,0,0,1,1.532.049c.233.09.474.155.713.227.413.125.78.294.792.917-.378.344-.807.744-1.247,1.132a3.642,3.642,0,0,1-1.377.647c-.516.167-1.153-.015-1.569.469a.229.229,0,0,1-.193.024c-.691-.206-1.414-.216-2.116-.358-.554-.113-1.126-.144-1.69-.212a1.726,1.726,0,0,1-1.3-.789,13.078,13.078,0,0,0-1.711-1.745c-.161-.182-.361-.329-.522-.511a.493.493,0,0,0-.721-.128,2.878,2.878,0,0,0-1.165,1.213,6.979,6.979,0,0,1-1.535,1.865,9.373,9.373,0,0,0-1.228,1.536,5.142,5.142,0,0,1-1.288,1.57,1.51,1.51,0,0,0-.371.465,5.193,5.193,0,0,1-1.943,2.215,3.578,3.578,0,0,0-1.544,1.2c-.172.292-.529.194-.825.182-.36-.014-.721.008-1.079-.018a1.185,1.185,0,0,1-.549-.157,2.309,2.309,0,0,0-2.545-.221,6.381,6.381,0,0,0-1.73,1.164,3.875,3.875,0,0,1-1.268.614,4.927,4.927,0,0,0-1.572.991,2.557,2.557,0,0,1-1.191.62,8.236,8.236,0,0,0-1.829.963,6.651,6.651,0,0,1-2.412.634,1.672,1.672,0,0,1-1.442-.383,2.136,2.136,0,0,0-1.1-.318,1.923,1.923,0,0,1-1.043-.473,14.846,14.846,0,0,1-1.648-1.588,7.631,7.631,0,0,1-.947-1.624c-.163-.343-.438-.592-.59-.964a7.428,7.428,0,0,1-.63-2.065c-.009-.089-.015-.207-.071-.259-.406-.372-.324-.859-.371-1.335-.077-.767-.233-1.527-.353-2.291-.046-.291-.087-.584-.126-.876-.071-.537-.153-1.074-.2-1.614a3.028,3.028,0,0,1,.05-.68c.113-.837.262-1.671.341-2.511a2.586,2.586,0,0,0-.249-1.318,2.121,2.121,0,0,0-1.859,1.215.611.611,0,0,1-.154.224,6.134,6.134,0,0,0-1.424,1.8,16.709,16.709,0,0,0-1.022,1.4,10.463,10.463,0,0,1-.874,1.163c-.275.413-.634.771-.917,1.179-.244.352-.431.742-.648,1.111-.068.115-.155.22-.227.334q-.285.455-.565.913c-.023.039-.02.106-.05.124-.644.4-.676,1.167-1.061,1.721a4.326,4.326,0,0,1-.894,1.012,1.72,1.72,0,0,0-.8,1.293c0,1.255-.744,2.215-1.249,3.262a26.189,26.189,0,0,1-1.558,2.678,4.081,4.081,0,0,0-.362,1.7c-.059.353-.17.7-.248,1.046-.194.864-.391,1.728-.571,2.6-.056.268-.058.529-.328.716-.129.09-.171.3-.252.463a2.571,2.571,0,0,1-.28.529,16.855,16.855,0,0,1-1.253,1.34,1.483,1.483,0,0,1-2.162-.261,3.153,3.153,0,0,1-.854-2.091,6.072,6.072,0,0,1,.246-1.943,5.822,5.822,0,0,0,.32-2.9,4.64,4.64,0,0,1,.3-2.213,4.719,4.719,0,0,0,.379-2.384,1.19,1.19,0,0,1,.025-.34c.066-.61.161-1.219.191-1.83a4.274,4.274,0,0,1,.351-1.584,11.317,11.317,0,0,0,.47-1.62c.006-.022.017-.054.007-.066-.395-.526-.035-.966.133-1.445a4.962,4.962,0,0,0,.095-.881c.062-.4.147-.8.225-1.2.013-.066.085-.151.064-.188-.3-.527.068-1.052,0-1.59a2.415,2.415,0,0,1,.2-1.261,5.231,5.231,0,0,0,.293-1.315,2.734,2.734,0,0,1,.437-1.116,2.282,2.282,0,0,0,.324-1.371,7.258,7.258,0,0,1,.415-2.264,1.166,1.166,0,0,0,.077-.465,4.107,4.107,0,0,1,.411-2.4c.4-.954.461-1.984.864-2.921a1.231,1.231,0,0,0,.057-.471,2.968,2.968,0,0,1,.582-1.582,2.854,2.854,0,0,0,.55-2.241.643.643,0,0,1,.208-.672,1.391,1.391,0,0,0,.417-.673,6.964,6.964,0,0,0,.294-2.226c-.033-.247.007-.5-.014-.753a1.191,1.191,0,0,1,.377-1.052,1.409,1.409,0,0,0,.413-1.179,1.629,1.629,0,0,1,.661-1.431.712.712,0,0,0,.254-.9,1.51,1.51,0,0,1-.016-1.32c.066-.121,0-.313.012-.47a3.081,3.081,0,0,1,.1-.669c.225-.687.49-1.359.7-2.048a2.92,2.92,0,0,0,.115-.875,4.778,4.778,0,0,1,.807-2.564,4.663,4.663,0,0,0,.313-.6c.347-.814.72-1.618,1.008-2.453a2.834,2.834,0,0,0,.1-1.212,3.207,3.207,0,0,1,.393-2.165,3.394,3.394,0,0,0,.282-1.111,8.856,8.856,0,0,1,.273-1.468,15.4,15.4,0,0,1,.848-1.554,8.81,8.81,0,0,0,.4-.927c.066-.169.054-.387.157-.52a2.414,2.414,0,0,0,.37-1.564c.014-.852.383-1.109,1.126-.721a17.7,17.7,0,0,1,1.756,1.166c.451.31.286.834.4,1.256a14.572,14.572,0,0,0,.654,2.357,2.485,2.485,0,0,1,.223.775.482.482,0,0,1-.473.612m29.429,31.2c-.519.261-1.01.483-1.473.752a1.209,1.209,0,0,1-.691.21.725.725,0,0,0-.475.328c-.373.534-.715,1.089-1.059,1.643-.286.461-.562.929-.836,1.4a26.868,26.868,0,0,0-1.8,3.226,7.922,7.922,0,0,1-1.24,2.558c-.425.458-.37,1.057-.482,1.6a5.1,5.1,0,0,0-.054.872c-.01.337.027.679-.016,1.01-.076.59.1.87.678.957a2.394,2.394,0,0,0,2.008-1.047,6.072,6.072,0,0,1,1.559-1.962,4.453,4.453,0,0,0,.866-1.1,2.284,2.284,0,0,1,.149-.226c.252-.4.5-.807.756-1.209.142-.226.284-.451.434-.672.357-.523.713-1.047,1.08-1.563a3.226,3.226,0,0,1,.465-.553c.337-.3.717-.554,1.047-.863a9.3,9.3,0,0,0,1.075-1.137,2.594,2.594,0,0,0-.229-2.471c-.208-.259-.336-.58-.529-.854a3.035,3.035,0,0,0-.6-.7,1.861,1.861,0,0,0-.638-.2m-28.968,3.921c.153.312.064.645.479.822l.525-.885-1,.064" transform="translate(-60.385 -23.675)" fill="#1a1311"/>
    <path id="パス_9605" data-name="パス 9605" d="M20.366,98.606c-.151.344-.408.505-.782.271a1.107,1.107,0,0,1-1.428.576,1.23,1.23,0,0,0-1.216.156,3.5,3.5,0,0,1-.856.372c-.1.044-.252.075-.3.157-.384.691-1.111.441-1.676.626-.236.077-.482.123-.723.184-.066.016-.158.075-.193.051-.633-.438-1.186.144-1.785.174s-1.043.594-1.371,1.141a2.663,2.663,0,0,1-.4.516c-.464.463-.942.911-1.41,1.36l.263.442c-.269.018-.464.027-.658.045-.621.056-1.249.087-1.865.09a6.354,6.354,0,0,0-1.588.263,4.772,4.772,0,0,1-1.477.041,1.039,1.039,0,0,1-.605-.288,1.531,1.531,0,0,0-1-.385c-.406-.048-.808-.122-1.226-.187a7.618,7.618,0,0,1,.045-2.279,5.663,5.663,0,0,1,2.8-.691,2.018,2.018,0,0,0,1.307-.5,6.734,6.734,0,0,1,2.1-.94A4.112,4.112,0,0,0,7.6,99.315a1.215,1.215,0,0,1,.584-.174,2.783,2.783,0,0,0,1.465-.516.816.816,0,0,1,.457-.088,4.2,4.2,0,0,0,1.717-.387,8.853,8.853,0,0,1,1.657-.385,3.839,3.839,0,0,0,.636-.2,9.411,9.411,0,0,1,1.55-.66,2.658,2.658,0,0,1,1.261.153.748.748,0,0,0,.632-.084,2.68,2.68,0,0,1,1.417-.4,2.962,2.962,0,0,0,1.041-.3,5.467,5.467,0,0,0,.938-.387A3.683,3.683,0,0,1,22.81,95.5a4.84,4.84,0,0,0,1.961-.518,2.933,2.933,0,0,0,.4-.322,2.09,2.09,0,0,1,.608-.39c.72-.185,1.451-.334,2.184-.461a2.535,2.535,0,0,1,.7.088c.444-.313.911-.662,1.4-.976a1.723,1.723,0,0,1,.588-.176,13.706,13.706,0,0,0,2.9-.751,1.67,1.67,0,0,1,.806.026,1.373,1.373,0,0,0,.909-.185,2.9,2.9,0,0,1,2.143-.5.89.89,0,0,0,.4-.059c.48-.126.955-.273,1.438-.385a3.507,3.507,0,0,0,1.641-.624.367.367,0,0,1,.176-.1c1.1-.123,2.116-.587,3.247-.651a3.764,3.764,0,0,0,2.209-.539.689.689,0,0,1,.382-.136,4.079,4.079,0,0,0,1.89-.716,2.713,2.713,0,0,1,1.81-.455,2.54,2.54,0,0,0,1.629-.388,1.487,1.487,0,0,1,.957-.191,2.818,2.818,0,0,0,1.8-.273,7.7,7.7,0,0,1,.86-.512,8.212,8.212,0,0,1,1.627-.488,3.382,3.382,0,0,1,1.149.131,1.06,1.06,0,0,0,.85-.109c.455-.294.925-.566,1.394-.837a1.418,1.418,0,0,1,.434-.174c.582-.106,1.165-.207,1.75-.284.563-.075,1.135-.091,1.694-.184.693-.115,1.377-.277,2.063-.431a.753.753,0,0,0,.364-.181,2.941,2.941,0,0,1,1.62-.63c.5-.118,1-.21,1.506-.281s1.042-.093,1.561-.147a2.666,2.666,0,0,0,.535-.113c.757-.243,1.525-.463,2.262-.755.671-.267,1.314-.608,1.961-.932a2.354,2.354,0,0,1,1.47-.174.927.927,0,0,0,.823-.161,1.052,1.052,0,0,1,1.042-.1,1,1,0,0,0,.518.079,7.649,7.649,0,0,0,1.416-.438,4.967,4.967,0,0,1,2.325-.674.4.4,0,0,0,.136-.018c.729-.241,1.458-.487,2.189-.725.367-.12.739-.229,1.109-.341.022-.007.047,0,.069-.007,1.066-.324,2.133-.645,3.2-.974.779-.241,1.556-.492,2.332-.74a.585.585,0,0,0,.187-.08A7.3,7.3,0,0,1,96.5,75.5a6.138,6.138,0,0,1,1.767-.05,2.235,2.235,0,0,0,2.056-.711.568.568,0,0,1,.278-.194,7.739,7.739,0,0,1,2.292-.625,1.635,1.635,0,0,0,.59-.119,1.626,1.626,0,0,1,2.154.6,9.015,9.015,0,0,0,.909.8,1.008,1.008,0,0,0,.054.33c.287.591-.014.97-.471,1.252a3.139,3.139,0,0,1-2.407.662.979.979,0,0,0-.474.026c-.475.141-.937.335-1.417.451a2.29,2.29,0,0,1-.873.023,2.121,2.121,0,0,0-1.874.62.97.97,0,0,1-.738.252c-.7.027-1.409.075-2.113.075-.335,0-.615.28-.984.13-.082-.033-.277.2-.415.322-.12.1-.225.29-.349.3-.439.042-.809.3-1.213.379a6.345,6.345,0,0,1-2.336.38.633.633,0,0,0-.516.136c-.394.482-1.008.311-1.48.545a1.539,1.539,0,0,1-.607.093,3.492,3.492,0,0,0-1.926.584,1.556,1.556,0,0,1-.563.153c-.064.014-.158-.041-.2-.012-.568.421-1.225.157-1.834.252a1.227,1.227,0,0,0-.3.1c-.267.118-.525.258-.8.362a18.4,18.4,0,0,1-3.891.86.443.443,0,0,0-.134.016,5.8,5.8,0,0,1-2.637.576c-.123,0-.318.072-.349.159-.208.55-.718.54-1.145.6a1.463,1.463,0,0,0-.883.592.882.882,0,0,0-.025,1.023,3.917,3.917,0,0,1,.755,1.517c-.456.174-.885.371-1.335.5a1.066,1.066,0,0,0-.7.773c-.2.567-.329,1.162-.523,1.734-.085.25-.282.461-.385.707-.161.386-.237.812-.433,1.176a4.557,4.557,0,0,0-.361,1.323c-.1.491-.227.977-.286,1.472s-.045,1-.067,1.5a.649.649,0,0,1-.042.269,1.681,1.681,0,0,0-.05,1.3,1.765,1.765,0,0,1-.149,1.443,2.545,2.545,0,0,0-.367,1.232,5.711,5.711,0,0,0-.016,2.063c.029.094-.044.218-.061.328a7.53,7.53,0,0,0-.154,1.076,2.83,2.83,0,0,1-.608,1.733c.405.383.14.855.048,1.259a3.826,3.826,0,0,0-.057,2.015.6.6,0,0,1-.082.5,1.674,1.674,0,0,0-.41,1.053,13.655,13.655,0,0,0-.123,2.545,5.968,5.968,0,0,1-.282,2.194,2.752,2.752,0,0,0-.289,1.773c.014.04.016.113-.006.132-.493.389-.045,1.017-.371,1.447a.079.079,0,0,0-.01.066,4.584,4.584,0,0,1-.19,2.148,16.527,16.527,0,0,1-.233,2.091,7.116,7.116,0,0,0-.362,2.869,1.5,1.5,0,0,1-.024.478c-.17.849-.373,1.692-.516,2.545a12.308,12.308,0,0,0-.09,1.418,7.743,7.743,0,0,1-.248,2.226,6.989,6.989,0,0,0-.24,1.2,2.969,2.969,0,0,0-.083.942c.053.3-.165.316-.335.428a4.035,4.035,0,0,1,.194.388,1.218,1.218,0,0,1,.01,1.166.613.613,0,0,0-.115.453c.262.611-.039,1.133-.187,1.692s-.225,1.154-.333,1.731c-.012.067-.048.142-.03.2a8.041,8.041,0,0,1-.1,3.291,11.768,11.768,0,0,1-.253,1.346,1.811,1.811,0,0,0,.026,1.075.92.92,0,0,1,.018.668,5.348,5.348,0,0,0-.3,1.945c-.122,1.014.006,2.034-.032,3.05a8.44,8.44,0,0,1-.2,1.479,2.668,2.668,0,0,0-.01,1.284.4.4,0,0,1-.047.328c-.506.474-.337,1.059-.263,1.611a2.718,2.718,0,0,1,0,1.277,1.6,1.6,0,0,0,.018.816,1.857,1.857,0,0,1-.269,1.372.994.994,0,0,0-.1.639c.058.725.08,1.455.074,2.182-.007.688-.066,1.376-.1,2.065a.544.544,0,0,1-.02.2,2.4,2.4,0,0,0,.186,2.247c-.158.251-.408.509-.233.888a.446.446,0,0,1-.07.388c-.347.414-.193.832-.1,1.28a2.06,2.06,0,0,1-.026,1.432.727.727,0,0,0,0,.4,8.258,8.258,0,0,1-.1,2.705,2.612,2.612,0,0,0,.045,1.383,6.137,6.137,0,0,1,.057,1.54,5.862,5.862,0,0,0,.2.688,4.381,4.381,0,0,1,.13,1.016,1.326,1.326,0,0,0,.117.719.873.873,0,0,1,.01.439c0,.062-.1.136-.085.177.187.487-.123.864-.26,1.172.687.9,1.327,1.738,1.97,2.574a1.317,1.317,0,0,0,.248.235.439.439,0,0,1,.116.656,5.007,5.007,0,0,0-.476.9.924.924,0,0,1-1,.655,1.159,1.159,0,0,1-1.155-.583,1.485,1.485,0,0,0-.632-.674,2.046,2.046,0,0,1-.62-.706,3.912,3.912,0,0,1-.828-1.455.594.594,0,0,0-.166-.295A2.928,2.928,0,0,1,59.6,182.2c-.017-.112,0-.262-.071-.327-.41-.4-.171-.852-.149-1.293a10.511,10.511,0,0,0-.025-1.074c-.039-.657-.073-1.315-.147-1.968-.05-.443-.223-.877-.24-1.318-.017-.417.127-.837.15-1.257.018-.332-.054-.669-.067-1-.032-.728-.063-1.457-.075-2.186a15.366,15.366,0,0,1,.03-2.386,10.1,10.1,0,0,0,.152-1.9,9.219,9.219,0,0,1,.2-2.084,3.039,3.039,0,0,0,.033-1.09,6.287,6.287,0,0,1,.219-2.3,5.856,5.856,0,0,0,.027-1.631,21.954,21.954,0,0,1-.024-2.392c0-.388,0-.778.028-1.164s.105-.761.161-1.14a1.609,1.609,0,0,0,.079-.531A4.775,4.775,0,0,1,60.046,153a.765.765,0,0,0,.041-.335,1.534,1.534,0,0,1,.147-1.118,2.4,2.4,0,0,0,.111-.934c.031-.662.038-1.324.07-1.985.015-.3.074-.588.1-.883.036-.381.064-.763.088-1.145.008-.134-.066-.313,0-.4.32-.43.156-.869.077-1.312A4.343,4.343,0,0,1,60.922,143c.022-.087.113-.182.093-.249a6.6,6.6,0,0,1-.058-2.027,2.718,2.718,0,0,1,.037-.735,8.9,8.9,0,0,0,.25-1.818,14.225,14.225,0,0,1,.322-3.3,3.049,3.049,0,0,0,.14-1.284,11.477,11.477,0,0,1,.28-2.967c.083-.609.109-1.226.2-1.834a1.416,1.416,0,0,1,.27-.67,1.24,1.24,0,0,0,.2-1.343,1.326,1.326,0,0,1-.094-.86c.16-.66.318-1.322.469-1.985a3,3,0,0,0,.119-.739,10.822,10.822,0,0,1,.525-3.572c.047-.151.165-.282.2-.433a2.1,2.1,0,0,0,.113-.92,4.493,4.493,0,0,1-.02-1.7c.04-.477.045-.956.079-1.433.02-.271.066-.539.1-.809a4.727,4.727,0,0,0,.1-.742,5.549,5.549,0,0,1,.128-.781,5.452,5.452,0,0,0,.176-1.664,1.865,1.865,0,0,1,.045-.934,6.107,6.107,0,0,1,.784-2.034.956.956,0,0,0,.1-.715,8.145,8.145,0,0,1,.24-3.977,2.368,2.368,0,0,0,.033-.408c.054-.5.119-1,.159-1.495.032-.41.045-.822.043-1.232a1.941,1.941,0,0,1,.284-1.428c.149-.176.1-.522.13-.792.053-.452.1-.9.151-1.356.025-.226.057-.451.079-.677a3.885,3.885,0,0,1,.731-2c.158-.21.23-.453.06-.624-.506-.508-.307-1.116-.26-1.677.085-1.022.248-2.037.39-3.053a3.884,3.884,0,0,1,.18-.725.788.788,0,0,0-.692-1.127c-.474-.037-.951-.039-1.426-.035a5.1,5.1,0,0,0-.9.2c-.677.13-1.268.489-1.938.6-.354.06-.7.179-1.054.227a1.662,1.662,0,0,1-.8-.019.691.691,0,0,0-.8.168,1.448,1.448,0,0,1-1.035.451,2.383,2.383,0,0,0-.649.2,7.289,7.289,0,0,1-1.175.305,6.626,6.626,0,0,0-2.037.515,3.838,3.838,0,0,1-1.115.283,1.752,1.752,0,0,0-.81.308,2.368,2.368,0,0,1-.818.272c-.668.141-1.4,0-1.981.521-.136.122-.415.087-.63.118s-.484-.01-.653.1a1.562,1.562,0,0,1-1.185.177,1.055,1.055,0,0,0-.766.132,3.489,3.489,0,0,1-2.174.674,3.133,3.133,0,0,0-1.052.11.4.4,0,0,0-.193.064,2.828,2.828,0,0,1-2,.445,1.293,1.293,0,0,0-.9.245.776.776,0,0,1-.56.121,2.538,2.538,0,0,0-1.588.269,2.074,2.074,0,0,1-.781.162,3.842,3.842,0,0,0-1.732.436,3.105,3.105,0,0,1-2.262.611.427.427,0,0,0-.332.026c-.458.444-1.1.394-1.628.624a1.965,1.965,0,0,0-.464.267,2.6,2.6,0,0,1-1.7.6,2.094,2.094,0,0,0-1.368.343.652.652,0,0,1-.514.092c-.81-.251-1.338.324-1.956.631-.117.058-.208.2-.328.222-.685.145-1.373.286-2.067.385a.858.858,0,0,0-.567.311c-.2.216-.393.663-.8.232-.011-.012-.088.028-.123.056s-.089.132-.138.137c-.509.051-1.019.088-1.63.138" transform="translate(0 -23.668)" fill="#1a1311"/>
    <path id="パス_9606" data-name="パス 9606" d="M442.348,97.148c-.313-.672.092-1.164.4-1.58a3.239,3.239,0,0,0,.586-1.362,2.752,2.752,0,0,1,.6-1.2,1.934,1.934,0,0,0,.6-1.33c-.04-.563.467-.856.691-1.291s.636-.759.6-1.306a.442.442,0,0,1,.1-.245c.487-.7.987-1.39,1.464-2.095a4.825,4.825,0,0,0,.322-.679,20.842,20.842,0,0,0,1.383-2.25c.113-.345.588-.554.794-.889.362-.588.873-1.143.713-1.933-.013-.064-.028-.156.006-.2.393-.489.48-1.176,1-1.572.157-.119.388-.138.553-.25.52-.354,1.025-.73,1.441-1.03-.087-.906-.161-1.674-.238-2.466l.555-.129a1.459,1.459,0,0,1,.5-1.229c.646-.781,1.2-1.636,1.8-2.46-.029-.553.572-.858.557-1.409,0-.054.072-.11.114-.163a20.548,20.548,0,0,0,1.756-2.3c.593-.168.691-.662.85-1.167a6.169,6.169,0,0,1,.666-1.25.649.649,0,0,1,.345-.293c.239-.056.362-.233.537-.35a.776.776,0,0,0,.307-1.094c.184-.522.323-.923.469-1.322.046-.123.082-.311.171-.346.389-.153.437-.51.532-.826a.837.837,0,0,1,1.259-.539,14.712,14.712,0,0,1,1.491,1.064.973.973,0,0,1,.208,1.216,1.362,1.362,0,0,0-.07.434,5.813,5.813,0,0,1-.177,1.321,10.014,10.014,0,0,1-.894,1.732,1.55,1.55,0,0,0-.305.954,1.356,1.356,0,0,1-.336,1c-.664.834-1.312,1.681-1.952,2.532a5.617,5.617,0,0,0-.5.812c-.394.765-.763,1.543-1.158,2.306a5.09,5.09,0,0,1-.46.68,9.943,9.943,0,0,1-.751.961c-.334.35-.717.654-1.076.981-.113.1-.27.2-.316.328a6.444,6.444,0,0,1-1.2,1.709,4.989,4.989,0,0,0-.771,1.412,2.257,2.257,0,0,1-.7.965,4.073,4.073,0,0,0-.965,1.517,1.294,1.294,0,0,1-.09.256,12.466,12.466,0,0,0-1.053,1.96c-.344.725-.784,1.4-1.2,2.094a2.42,2.42,0,0,0-.546,1.293.421.421,0,0,1-.085.257,16,16,0,0,0-1.336,2.246,5.253,5.253,0,0,1-1.206,1.774c-.194.151-.194.543-.3.819a3.233,3.233,0,0,1-.423.99,3.925,3.925,0,0,0-.529,1.019q-.387.833-.8,1.654a6.576,6.576,0,0,1-.492.874,1.022,1.022,0,0,0-.028.985c.126.4.728.529,1.177.249a7.574,7.574,0,0,0,1.042-.75.888.888,0,0,1,1.276.108c.264.3.643.557.432,1.063-.346.257-.7.541-1.073.79a2.451,2.451,0,0,1-.667.3,1.893,1.893,0,0,0-1.295.81c-.107.187-.4.264-.593.406-.69.5-1.634.593-2.154,1.373a2.883,2.883,0,0,1-.522.436,8,8,0,0,0-1.769,1.949c-.1.175-.146.379-.233.563-.117.246-.191.564-.388.712a3.3,3.3,0,0,0-.917,1.494,14.1,14.1,0,0,0-.815,1.875c-.315,1.148-1.255,1.937-1.635,3.041-.229.664-.544,1.3-.83,1.945a3.028,3.028,0,0,1-.248.4,1.885,1.885,0,0,0-.291.459,13.123,13.123,0,0,1-1.171,2.512c-.346.682-.507,1.455-.8,2.165-.235.563-.408,1.147-.627,1.711a4.459,4.459,0,0,1-.74.968c-.1.123-.256.253-.261.385a9.119,9.119,0,0,1-1.017,2.784c-.473,1.293-1.061,2.545-1.464,3.869-.117.385-.4.719-.523,1.1a9.821,9.821,0,0,1-.993,2.623c-.067.1-.03.264-.074.386-.119.337-.255.668-.387,1-.074.188-.156.373-.231.56-.1.253-.2.506-.3.761-.13.338-.253.679-.387,1.014a8.88,8.88,0,0,0-.36.862c-.122.437-.2.888-.284,1.334-.033.179-.015.368-.054.546-.176.8-.108.949.544,1.4a1.765,1.765,0,0,1,.545.577.925.925,0,0,1-.265,1.217,1.057,1.057,0,0,0-.51,1.052c.145.623-.267,1-.516,1.455a6,6,0,0,0-.833,2.016c-.083.543-.052,1.25-.695,1.609a.566.566,0,0,0-.219.341A3.106,3.106,0,0,1,423.048,152a1.763,1.763,0,0,1-1.205.506,1.727,1.727,0,0,1-1.654-1.189,4.976,4.976,0,0,0-.329-.636,4.008,4.008,0,0,1-.368-1.43,7.546,7.546,0,0,1,.11-1.773,2.4,2.4,0,0,1,.465-.959.787.787,0,0,0,.2-.679.994.994,0,0,1,.364-1.1,1.239,1.239,0,0,0,.276-.46c.155-.3.119-.7.586-.848.15-.047.238-.476.252-.736a2.006,2.006,0,0,1,.347-1.287,1.451,1.451,0,0,0,.154-.52c.042-.154.035-.379.136-.449.5-.351.341-.957.579-1.4a.652.652,0,0,0,.013-.4,1.558,1.558,0,0,1,.389-1.316,2.817,2.817,0,0,0,.605-1.253,18.418,18.418,0,0,1,.592-2.012c.013-.043.031-.1.064-.118.586-.315.506-.985.769-1.471.415-.768.715-1.6,1.057-2.405.061-.145.077-.307.136-.452.1-.251.164-.576.355-.725a1.859,1.859,0,0,0,.772-1.3c.074-.574.2-1.141.31-1.712.033-.178.007-.4.1-.526.191-.252.339-.469.173-.8a.36.36,0,0,1,.093-.3,3.934,3.934,0,0,0,.849-1.814,3.538,3.538,0,0,1,.58-.988,2.278,2.278,0,0,0,.379-.933,3.831,3.831,0,0,1,.754-1.789,17.967,17.967,0,0,0,1.63-2.736,9.316,9.316,0,0,0,.276-1.259,6.217,6.217,0,0,1,.831-1.871c.231-.305.355-.755.585-1.117.19-.3.5-.536.52-.937a.33.33,0,0,1,.166-.2,1.044,1.044,0,0,0,.483-.763,12.429,12.429,0,0,1,.7-1.909,4.312,4.312,0,0,1,.577-.9,1.979,1.979,0,0,0,.374-1.291.822.822,0,0,0-.637-.842c-.51-.172-.968-.541-1.558-.4a3.466,3.466,0,0,0-1.34-.464c-.113-.03-.2-.17-.3-.262-.079-.076-.145-.212-.232-.225a3.472,3.472,0,0,1-1.812-1.09,1.521,1.521,0,0,0-.425-.212c-.1-.045-.269-.052-.306-.126-.39-.772-1.3-.934-1.81-1.559-.069-.084-.208-.123-.253-.214a9.3,9.3,0,0,0-2.067-2.274,2.014,2.014,0,0,1-.277-.383c-.058-.1-.073-.222-.138-.311-.428-.574-.846-1.158-1.306-1.705a5.6,5.6,0,0,1-.879-1.186,6.92,6.92,0,0,0-.561-.857,1.253,1.253,0,0,1-.355-.812,1.867,1.867,0,0,0-.552-1.051c-.261-.3-.539-.554-.464-1a.262.262,0,0,0-.028-.2,2.293,2.293,0,0,1-.513-1.139,3.619,3.619,0,0,0-.527-1.088A8,8,0,0,1,420,86.159c-.18-.537-.272-1.1-.407-1.655a.6.6,0,0,0-.1-.252c-.307-.354-.213-.75-.186-1.164a10.818,10.818,0,0,0-.069-1.4c-.028-.432-.066-.864-.094-1.3s.225-.737.661-.641a18.8,18.8,0,0,1,2.294.662,1.107,1.107,0,0,1,.69.8,5.2,5.2,0,0,0,.244.553c.079.208.248.474.181.63a2.527,2.527,0,0,0,.062,1.43,12.652,12.652,0,0,0,.377,1.585,16.367,16.367,0,0,1,.432,1.618,7.754,7.754,0,0,0,.927,2.526c.333.614.661,1.233,1.012,1.837.27.466.562.921.862,1.369.451.67.89,1.35,1.386,1.986.54.693,1.137,1.341,1.713,2.006.455.527.895,1.068,1.376,1.569a10.837,10.837,0,0,0,1.036.88,15.614,15.614,0,0,1,1.267,1.013,3.178,3.178,0,0,0,1.348.752.811.811,0,0,1,.2.05c.989.652,2.091.382,3.132.3a2.377,2.377,0,0,0,1.759-1.244,8.7,8.7,0,0,1,2.247-2.924" transform="translate(-134.738 -19.437)" fill="#1a1311"/>
    <path id="パス_9607" data-name="パス 9607" d="M345.136,97.646a1.991,1.991,0,0,0,2.209-.655,20.347,20.347,0,0,1,2.715-2.538,8.546,8.546,0,0,0,1.7-1.439,1.4,1.4,0,0,1,1.121-.432c.472.021,1-.048,1.382.424.161.2.518.236.788.341a1.421,1.421,0,0,1,.9.655,8.467,8.467,0,0,0,.761,1.024.958.958,0,0,1,.02,1.04,2.228,2.228,0,0,0-.193.431.514.514,0,0,1-.5.395,2.6,2.6,0,0,1-.813.065,2.645,2.645,0,0,0-2.327,1.028,4.712,4.712,0,0,0-.5.559,1.085,1.085,0,0,1-.868.435,1.461,1.461,0,0,0-1.443.929A4.263,4.263,0,0,1,349,101.282a5.428,5.428,0,0,0-.82.965c-.539.807-1.077,1.613-1.64,2.4a5.112,5.112,0,0,1-.9,1.062,3.438,3.438,0,0,0-1.032,1.792,2.482,2.482,0,0,0,.5,2.046,1.487,1.487,0,0,0,1.381.686,2.79,2.79,0,0,1,.854.14,3.782,3.782,0,0,0,.738.1c.088.008.209-.043.263,0,.687.535,1.465.032,2.183.2.172.039.4-.05.529.034a2.479,2.479,0,0,0,1.259.223,14.25,14.25,0,0,1,1.74.276,4.388,4.388,0,0,0,1.823.079,7.01,7.01,0,0,1,1.413-.009,1.844,1.844,0,0,0,.537.013,7.135,7.135,0,0,1,2.11-.1c.586-.009,1.171-.079,1.755-.121.657-.048,1.314-.125,1.972-.127a1.1,1.1,0,0,1,.658.3,1.366,1.366,0,0,0,.93.351,4.874,4.874,0,0,0,2.526-.346,1.409,1.409,0,0,1,.995,0c.2.068.476.434.437.6-.1.409.142.645.328.971a2.011,2.011,0,0,1-1.558.69,8.347,8.347,0,0,0-1.084.115c-.837.075-1.679.111-2.513.218a35.517,35.517,0,0,0-3.554.536,1.052,1.052,0,0,1-.4.079,9.91,9.91,0,0,0-2.312,0,6.533,6.533,0,0,0-2.082.245,4.344,4.344,0,0,1-2.389.013c-.132-.028-.294-.128-.391-.083-.673.311-1.348-.077-2.021.033a1.187,1.187,0,0,1-.674-.077,2.458,2.458,0,0,0-1.412-.112,2.709,2.709,0,0,1-1.4-.207,3.52,3.52,0,0,0-1.266-.258,3.11,3.11,0,0,1-2.713-.951.4.4,0,0,0-.17-.108c-.4-.154-.794-.3-1.221-.465a1.2,1.2,0,0,0-.712,1.176,4.092,4.092,0,0,1-.159.736c-.031.134-.121.284-.086.4a5.2,5.2,0,0,1-.133,1.882,1.917,1.917,0,0,1-.1.537,1.908,1.908,0,0,0,.778,2.528c.223.158.468.288.676.463a3.778,3.778,0,0,1,.416.474c-.251.376-.461.688-.668,1a.507.507,0,0,0-.116.232c.013.773-.441,1.048-1.12,1.276a1.894,1.894,0,0,1-2.037-.3.434.434,0,0,0-.185-.087c-.784-.172-.9-.876-1.166-1.461-.046-.1-.035-.265-.107-.309-.455-.278-.368-.738-.431-1.155-.061-.4-.13-.8-.227-1.195a3.777,3.777,0,0,1,.006-2.017c.019-.066.066-.132.061-.194-.1-1.12.3-2.2.271-3.317a4.525,4.525,0,0,1,.36-1.509,3.054,3.054,0,0,0,.254-1.119,3.811,3.811,0,0,1,.189-1,4.587,4.587,0,0,0,.314-2.078.31.31,0,0,1,.015-.2,3.755,3.755,0,0,0,.486-2.325c-.022-.2.216-.431.318-.655.329-.719.663-1.436.968-2.167a2.487,2.487,0,0,0,.1-.658,9.027,9.027,0,0,1,.127-1.08,10.4,10.4,0,0,0,.467-1.66c.049-.781.328-1.5.443-2.26a3.11,3.11,0,0,1,.777-1.7,1.02,1.02,0,0,0,.149-.628c.007-.387-.077-.778-.042-1.161a6.441,6.441,0,0,1,.261-1.037c.033-.127.124-.269.093-.377-.225-.777.289-1.408.4-2.117a.458.458,0,0,1,.211-.261,1.1,1.1,0,0,0,.474-1.18,6.036,6.036,0,0,1,.8-3.475,6.408,6.408,0,0,0,.447-1.645,6.122,6.122,0,0,1,.306-.96,3.032,3.032,0,0,0,.406-1.5,2.845,2.845,0,0,1,.97-2.177,1.175,1.175,0,0,1,.953-.128,3.509,3.509,0,0,1,1.079.558,1.332,1.332,0,0,0,.812.291c.389-.006.533.159.393.509a5.5,5.5,0,0,0-.4,1.718.7.7,0,0,1-.2.351,1.621,1.621,0,0,0-.34.933,5.838,5.838,0,0,1-.442,1.274,7.374,7.374,0,0,0-.554,2.032,3.314,3.314,0,0,1-.123.666c-.288.993-.611,1.975-.873,2.975-.147.559-.193,1.143-.294,1.715a1.581,1.581,0,0,1-.146.52,2.043,2.043,0,0,0-.213.909,14.906,14.906,0,0,1-.342,1.723,3.336,3.336,0,0,0-.14.665,3.806,3.806,0,0,1-.579,2.137,1.574,1.574,0,0,0-.085.566" transform="translate(-108.289 -25.094)" fill="#1a1311"/>
    <path id="パス_9608" data-name="パス 9608" d="M307.761,132.763a3.14,3.14,0,0,1-2.4-.831,1.16,1.16,0,0,0-.452-.3c-1.108-.252-1.562-1.173-2.1-2.01a10.72,10.72,0,0,1-.581-.911c-.183-.36-.3-.753-.47-1.122a4.182,4.182,0,0,1-.6-2.466,4.535,4.535,0,0,0-.079-.744c0-.3-.062-.569-.371-.656a.787.787,0,0,0-.891.147c-.252.288-.5.581-.75.869-.059.068-.115.155-.192.187a3.462,3.462,0,0,0-1.952,2.473.612.612,0,0,1-.1.248,13.09,13.09,0,0,0-2.318,3.56c-.5,1.015-.936,2.061-1.422,3.083a5.567,5.567,0,0,1-.615.98,13.434,13.434,0,0,0-1.12,2.069,6.6,6.6,0,0,1-1.714,2.1,1.94,1.94,0,0,1-1.518.463c-.245-.039-.6-.187-.67-.375a25.341,25.341,0,0,0-1.24-2.264.639.639,0,0,1-.09-.324c.07-.674.154-1.348.238-2.021a6.428,6.428,0,0,0,.127-.947,6.287,6.287,0,0,1,.352-2.355c.067-.186.019-.411.073-.6.146-.513.163-1.083.714-1.412a.5.5,0,0,0,.1-.686,1.627,1.627,0,0,1,.356-2.108c.079-.075.091-.227.175-.288a1.708,1.708,0,0,0,.6-1.649,4.265,4.265,0,0,1,.438-1.978,3.046,3.046,0,0,0,.2-1.185,1.079,1.079,0,0,1,.415-.888,3.965,3.965,0,0,0,.479-.477.9.9,0,0,1,1.274-.178,3.477,3.477,0,0,0,.879.487,1.135,1.135,0,0,1,.86,1.107,3.6,3.6,0,0,0,.536,1.448c.212.4.394.406.8.154a11.992,11.992,0,0,0,2.31-2.176c.446-.476.957-.891,1.433-1.341a.981.981,0,0,0,.227-.328,5.3,5.3,0,0,1,1.532-1.9c.786-.683,1.614-1.318,2.445-1.944a1.493,1.493,0,0,1,2.111.475c.2.347.383.628.869.653.467.024.629.356.684.862a13.94,13.94,0,0,1-.287,3.539c-.039.263-.239.5-.274.765-.07.519-.068,1.047-.111,1.569a11.6,11.6,0,0,1-.2,1.894,3.129,3.129,0,0,0-.054.989,3.885,3.885,0,0,0,1.542,2.766,1.3,1.3,0,0,0,1.639.071,4.176,4.176,0,0,1,2.416-.8,10.982,10.982,0,0,0,2.621-.393,5.2,5.2,0,0,1,1.229-.089.578.578,0,0,1,.368.136,1.35,1.35,0,0,1,.181,1.629c-.049.077-.091.179-.163.215-.523.263-1.052.512-1.582.761-.06.029-.152.014-.194.054-.636.615-1.51.572-2.271.841a7.816,7.816,0,0,0-1.533.679,2.8,2.8,0,0,1-1.914.474" transform="translate(-91.975 -37.101)" fill="#1a1311"/>
    <path id="パス_9609" data-name="パス 9609" d="M554.384,85.954a1.745,1.745,0,0,1,1.724-.669c.113,0,.254.036.338-.016.687-.43,1.225-.074,1.709.352a.537.537,0,0,0,.726.087,5.467,5.467,0,0,0,.725-.378,2.038,2.038,0,0,1,1.8-.588.592.592,0,0,0,.436-.121,1.481,1.481,0,0,1,1.119-.2.5.5,0,0,1,.375.212.577.577,0,0,1-.109.432.644.644,0,0,1-.326.226,6.723,6.723,0,0,0-2.407,1.4,1.476,1.476,0,0,1-.926.375c-.63-.02-1,.388-1.446.684-.166.11-.337.3-.508.3a4.9,4.9,0,0,0-1.936.522.546.546,0,0,1-.268.041,4.63,4.63,0,0,0-2.051.446,3.289,3.289,0,0,1-1.478.161,14.666,14.666,0,0,0-2.322-.06,3.815,3.815,0,0,1-1.36-.329,6.236,6.236,0,0,1-1.36-.554c-.5-.3-1.032-.509-1.535-.782a2.822,2.822,0,0,1-.8-.9,1.663,1.663,0,0,0-1.916-.7,2.5,2.5,0,0,0-.9.8,6.63,6.63,0,0,1-1.991,1.689,3.061,3.061,0,0,0-1.153,1.018c-.155.246-.5.365-.748.561s-.432.4-.66.588-.518.354-.749.562c-.286.258-.511.59-.816.818a16.077,16.077,0,0,1-1.369.85c-.077.045-.2.032-.257.088a10.743,10.743,0,0,1-2.221,1.294c-.079.043-.144.139-.225.152-.987.161-1.972.36-2.967.444-.584.05-.93-.457-1.274-.867-.1-.12-.167-.271-.267-.394-.29-.359-.717-.631-.626-1.208.022-.14-.174-.309-.26-.472-.062-.118-.188-.3-.147-.363.341-.565-.006-1.141.06-1.706a.21.21,0,0,0-.014-.066,2.036,2.036,0,0,1-.907-1.643,1.256,1.256,0,0,1,.163-.837,5.624,5.624,0,0,0,.844-2.623,4.34,4.34,0,0,0-.123-1.143.807.807,0,0,1,.037-.458c.234-.384.51-.744.771-1.114l-.138-.367a.56.56,0,0,1,.064-.134c.271-.3.6-.577.528-1.054a.169.169,0,0,1,.038-.129c.624-.6.72-1.506,1.264-2.154.289-.345.528-.733.825-1.069a1.062,1.062,0,0,1,1.521.032,1.417,1.417,0,0,0,.97.539,2.5,2.5,0,0,1,1.608,1.07,4.039,4.039,0,0,0,1.433,1.229,1.014,1.014,0,0,1,.629,1.111,3.539,3.539,0,0,1-1.451.86.99.99,0,0,1-.784-.089,1.807,1.807,0,0,0-.553-.216c-.767-.2-1.109.024-1.334.82a1.316,1.316,0,0,1-.2.335,2.765,2.765,0,0,0-.229.332c-.4.858-.859,1.7-1.18,2.588a10.955,10.955,0,0,0-.335,1.879c-.053.313-.137.624-.161.939a3.342,3.342,0,0,0,0,1.2c.084.275.437.467.674.7a15.907,15.907,0,0,0,1.955-.959,30.1,30.1,0,0,0,2.7-2.059,1.7,1.7,0,0,1,.835-.4c.224-.042.449-.075.674-.109a1.606,1.606,0,0,0,1.245-.84c.21-.362.6-.615.678-1.08a.373.373,0,0,1,.233-.226,2.71,2.71,0,0,0,1.316-1.04A1.536,1.536,0,0,1,540,83.2a1.643,1.643,0,0,0,.715-.887,1.551,1.551,0,0,1,.851-.922,1.075,1.075,0,0,0,.608-1.422,4.071,4.071,0,0,1,.138-2.025,5.121,5.121,0,0,1,1.287-2.363.94.94,0,0,0,.332-.707c-.033-.493.328-.729.607-1.014a.511.511,0,0,1,.373-.11,3.136,3.136,0,0,1,2.724,2.159,2.933,2.933,0,0,1-.122,2.222,8.375,8.375,0,0,0-.643,3.112,1.491,1.491,0,0,1-.009.272,3.423,3.423,0,0,0,.88,2.808,2.323,2.323,0,0,0,1.309.811,9.747,9.747,0,0,0,2.977.332,4.332,4.332,0,0,1,2.352.487" transform="translate(-168.797 -23.707)" fill="#1a1311"/>
    <path id="パス_9610" data-name="パス 9610" d="M496.116,81.419c.765.121,1.536.212,2.291.377a8.548,8.548,0,0,1,1.345.481,8.273,8.273,0,0,1,1.291.584,3.681,3.681,0,0,1,1.015.871,4.573,4.573,0,0,0,1.123,1.059.454.454,0,0,1,.2.246,1.848,1.848,0,0,0,.525.995,1.147,1.147,0,0,1,.312.875,1.078,1.078,0,0,0,.4,1.032,2.82,2.82,0,0,1,.469,1.336,5.317,5.317,0,0,1-.118,1.266c-.048.49.064.994.038,1.489a3.425,3.425,0,0,1-.466,1.938,7.873,7.873,0,0,0-.664,1.618,3.42,3.42,0,0,1-.3.656c-.306.451-.63.892-.972,1.316-.21.262-.471.482-.7.731-.494.542-.969,1.1-1.478,1.632a1.265,1.265,0,0,1-.615.376,1.244,1.244,0,0,0-.747.43c-.307.348-.647.655-.936,1.033a2.818,2.818,0,0,1-1.39.814,6.3,6.3,0,0,0-1.625.459,1.163,1.163,0,0,1-.588.165,11.935,11.935,0,0,1-2.447.029,1.641,1.641,0,0,1-.785-.344.927.927,0,0,0-.4-.244c-.535-.079-.8-.5-1.118-.848a5.287,5.287,0,0,1-.547-.84,1.927,1.927,0,0,1-.235-.491c-.155-.592-.287-1.192-.432-1.787-.021-.085-.045-.2-.107-.242-.475-.319-.378-.814-.408-1.269a2.344,2.344,0,0,0-.037-.6,2.768,2.768,0,0,1,.056-1.795c.195-.628.351-1.268.548-1.9.087-.28.243-.537.353-.81.116-.29.136-.746.339-.846.309-.153.094-.635.508-.634.042,0,.1-.145.124-.229a14.4,14.4,0,0,0,.369-1.625,2.219,2.219,0,0,1,1.336-1.656c.407-.235.816-.468,1.216-.715a.442.442,0,0,0,.143-.227,8.466,8.466,0,0,1,1.246-2.086,2.2,2.2,0,0,0,.333-1.147c.04-1.122.417-1.51,1.525-1.472m-2.374,9.924a4.272,4.272,0,0,0-.214.539c-.107.435-.178.879-.294,1.311a.945.945,0,0,1-.274.525.839.839,0,0,0-.317.716c-.066.541-.117,1.084-.183,1.625-.039.316-.073.606-.464.755a.809.809,0,0,0-.366.587,2.366,2.366,0,0,0,.132.863.884.884,0,0,0,.259.374c.1.089.3.1.341.2.215.55.747.486,1.113.453a1.656,1.656,0,0,0,1.191-.341,4.945,4.945,0,0,1,2.682-1.528,1.046,1.046,0,0,0,.256-.094,2.078,2.078,0,0,0,.929-.868c.409-.692.887-1.344,1.346-2.006a.7.7,0,0,1,.31-.261,1.079,1.079,0,0,0,.7-1.366,1.3,1.3,0,0,1,.31-1.113,1.955,1.955,0,0,0,.3-.8,5.328,5.328,0,0,0-.052-.784.7.7,0,0,0-.879-.746,3.944,3.944,0,0,0-.857.4,2.075,2.075,0,0,1-2.428.057,3.543,3.543,0,0,0-1.187-.5c-.452-.115-.571.007-.8.426-.216.395-.474.767-.712,1.151a.73.73,0,0,1-.844.424" transform="translate(-156.839 -26.172)" fill="#1a1311"/>
    <path id="パス_9611" data-name="パス 9611" d="M637.014,51.127c-.033-.291-.075-.575-.091-.862a.6.6,0,0,1,.08-.311,2.011,2.011,0,0,0,.207-1.635,1.291,1.291,0,0,1,.031-.6c.09-.413.212-.819.311-1.23a.535.535,0,0,0,0-.272c-.325-1.067.318-1.907.687-2.8.1-.25.216-.387-.077-.531a5.7,5.7,0,0,0,.594-2.549c.007-.725.118-1.449.2-2.173a.69.69,0,0,1,.155-.284,10.449,10.449,0,0,0,.716-1.019c.062-.113-.085-.338-.138-.52.123-.349.258-.731.392-1.112.015-.043.054-.1.04-.127-.343-.657.079-1.113.4-1.6a1.074,1.074,0,0,0,.115-.381c.018-.088-.031-.225.016-.266a1.318,1.318,0,0,0,.373-1.4.678.678,0,0,1,.161-.442,2.854,2.854,0,0,0,.493-1.213,5.23,5.23,0,0,1,.8-1.482,3.1,3.1,0,0,1,.25-.4,1.6,1.6,0,0,0,.337-1.462.61.61,0,0,1,.116-.433,4.118,4.118,0,0,0,.55-1.433,4.471,4.471,0,0,1,.888-1.814,1.461,1.461,0,0,0,.371-1.183,1.868,1.868,0,0,1,.3-1.067,4.3,4.3,0,0,0,.441-2.56,1.787,1.787,0,0,1,.416-1.451.346.346,0,0,0,.1-.245c-.046-.422.231-.727.37-1.08.165-.423.375-.833.5-1.266a2.665,2.665,0,0,1,.591-1.194c.12-.123.105-.379.146-.576.157-.755.309-1.51.47-2.264.018-.083.059-.2.122-.229.666-.313.71-.981.858-1.56.143-.563.095-1.178.526-1.648-.195-.613.48-.866.571-1.385a13.105,13.105,0,0,1,.513-1.455,11.7,11.7,0,0,0,.625-2.552.835.835,0,0,1,.51-.725A2.149,2.149,0,0,1,653.269,0c.439.015.836.012.922.567.005.042.035.109.065.115.5.107.594.693,1,.862.642.266.624.8.584,1.309-.052.666-.3,1.3-.409,1.964A5.426,5.426,0,0,1,654.926,6c-.285.641-.61,1.268-.829,1.93a.837.837,0,0,1-.343.528c-.172.108-.309.272-.48.381a.8.8,0,0,0-.438.907c.092.5-.361.807-.539,1.214-.079.18-.229.364-.222.541a4.349,4.349,0,0,1-.283,1.249c-.076.306-.1.626-.18.93a2.4,2.4,0,0,1-.349.938,4.621,4.621,0,0,0-.809,2.141c-.089.373-.493.769-.143,1.21-.266.375-.169.824-.263,1.23a3.381,3.381,0,0,1-.56,1.143c-.314.442-.721.816-1.059,1.242a.761.761,0,0,0-.2.539c.172.647-.212,1.094-.5,1.575-.159.27-.391.495-.284.858a.386.386,0,0,1-.088.319,1.753,1.753,0,0,0-.4,1.268.719.719,0,0,1-.109.322,12.42,12.42,0,0,0-.937,2.322,7.205,7.205,0,0,1-.641,1.1,1.779,1.779,0,0,0-.278.88,2.624,2.624,0,0,1-.357,1.575,4.071,4.071,0,0,0-.359.866,2.872,2.872,0,0,1-.283.542,4.511,4.511,0,0,0-.528,1.157c-.212.586-.318,1.2-.528,1.771-.263.722-.693,1.382-.986,2.095-.231.563-.362,1.167-.545,1.751-.045.145-.118.282-.173.424a6.8,6.8,0,0,0-.3.812c-.158.651-.274,1.313-.437,1.962a3.469,3.469,0,0,1-.3.6,1.052,1.052,0,0,0-.161.43,2.124,2.124,0,0,1-.4,1.28.556.556,0,0,0-.1.385.946.946,0,0,1-.268.911,1.648,1.648,0,0,0-.179,1.043,1.279,1.279,0,0,1-.391,1.11c-.139.13-.185.354-.3.512-.351.465-.538,1.113-1.263,1.177-.039,0-.081-.031-.11-.043" transform="translate(-204.746 0)" fill="#1a1311"/>
    <path id="パス_9612" data-name="パス 9612" d="M631.668,105.834l.18-.434c-.028-.059-.04-.127-.068-.135-.529-.151-.417-.71-.663-1.04a.145.145,0,0,1,.023-.129,5.913,5.913,0,0,1,.944-1.048,1.309,1.309,0,0,1,.926-.07,6.826,6.826,0,0,1,2.484,1.014c.518.366,1.072.672,1.572,1.048a2.194,2.194,0,0,1,.6,1.009c.1.278-.318.771-.657.952a8.094,8.094,0,0,0-.912.565,1.268,1.268,0,0,1-1.1.2,3.214,3.214,0,0,0-.666-.114,3.8,3.8,0,0,1-2.216-1.058.212.212,0,0,1-.077-.175c.1-.322-.148-.436-.371-.586" transform="translate(-202.877 -33.088)" fill="#1a1311"/>
  </g>
</svg>
