<svg xmlns="http://www.w3.org/2000/svg" width="39" height="39" viewBox="0 0 39 39">
  <g id="グループ_4585" data-name="グループ 4585" transform="translate(-100 -394)">
    <path id="パス_9987" data-name="パス 9987" d="M19.5,0A19.5,19.5,0,1,0,39,19.5,19.5,19.5,0,0,0,19.5,0m5.059,31.194L18.641,22.58l-7.409,8.613H9.317l8.474-9.85L9.317,9.01H15.78l5.6,8.156L28.4,9.01h1.915L22.235,18.4h0l8.788,12.79Z" transform="translate(100 394.002)"/>
    <path id="パス_9988" data-name="パス 9988" d="M667.576,585.813l-5.513-7.886h-2.941l6.832,9.772.859,1.228h0l5.848,8.365H675.6l-7.167-10.251Z" transform="translate(-547.2 -173.473)"/>
  </g>
</svg>
