<svg xmlns="http://www.w3.org/2000/svg" width="39" height="39" viewBox="0 0 39 39">
  <path id="前面オブジェクトで型抜き_2" data-name="前面オブジェクトで型抜き 2" d="M-3103.5,101a19.378,19.378,0,0,1-7.59-1.532,19.434,19.434,0,0,1-6.2-4.179,19.431,19.431,0,0,1-4.179-6.2A19.377,19.377,0,0,1-3123,81.5a19.38,19.38,0,0,1,1.532-7.591,19.432,19.432,0,0,1,4.179-6.2,19.437,19.437,0,0,1,6.2-4.179A19.378,19.378,0,0,1-3103.5,62a19.378,19.378,0,0,1,7.59,1.532,19.43,19.43,0,0,1,6.2,4.179,19.438,19.438,0,0,1,4.179,6.2A19.385,19.385,0,0,1-3084,81.5a19.383,19.383,0,0,1-1.532,7.59,19.438,19.438,0,0,1-4.179,6.2,19.432,19.432,0,0,1-6.2,4.179A19.378,19.378,0,0,1-3103.5,101Zm.3-28c-.08,0-8.028.006-10,.538a3.22,3.22,0,0,0-2.264,2.279,33.957,33.957,0,0,0-.534,6.2,33.963,33.963,0,0,0,.534,6.2,3.151,3.151,0,0,0,2.264,2.242c1.974.532,9.922.538,10,.538s8.029-.006,10-.538a3.149,3.149,0,0,0,2.263-2.242,33.947,33.947,0,0,0,.535-6.2,33.941,33.941,0,0,0-.535-6.2,3.219,3.219,0,0,0-2.263-2.279C-3095.171,73.006-3103.119,73-3103.2,73Zm-2.618,12.825V78.212l6.692,3.807-6.69,3.805Z" transform="translate(3123 -62)"/>
</svg>
