<svg xmlns="http://www.w3.org/2000/svg" xmlns:xlink="http://www.w3.org/1999/xlink" width="310" height="180" viewBox="0 0 310 180">
  <defs>
    <clipPath id="clip-path">
      <rect id="長方形_4655" data-name="長方形 4655" width="310" height="180" transform="translate(805 450)" fill="#fff" stroke="#707070" stroke-width="1"/>
    </clipPath>
    <clipPath id="clip-path-2">
      <rect id="長方形_4657" data-name="長方形 4657" width="291.958" height="179.563" fill="none"/>
    </clipPath>
    <clipPath id="clip-path-3">
      <rect id="長方形_4656" data-name="長方形 4656" width="81.702" height="91.933" fill="none"/>
    </clipPath>
  </defs>
  <g id="マスクグループ_3" data-name="マスクグループ 3" transform="translate(-805 -450)" clip-path="url(#clip-path)">
    <g id="グループ_14342" data-name="グループ 14342" transform="translate(814 450)">
      <g id="グループ_14341" data-name="グループ 14341" clip-path="url(#clip-path-2)">
        <path id="パス_13189" data-name="パス 13189" d="M0,30.643v61.29H81.7V30.643C80.939,30.068,41.993.858,40.851,0,39.71.858.764,30.068,0,30.643M70.082,80.309H11.619V36.456L40.851,14.527,70.082,36.456Z" fill="#fff"/>
        <g id="グループ_14340" data-name="グループ 14340" transform="translate(105.123)" style="isolation: isolate">
          <g id="グループ_14339" data-name="グループ 14339">
            <g id="グループ_14338" data-name="グループ 14338" clip-path="url(#clip-path-3)">
              <path id="パス_13190" data-name="パス 13190" d="M188.979,30.643V91.933H200.6V36.456l29.229-21.929,29.228,21.929V91.933h11.622V30.643C269.918,30.068,230.974.858,229.831,0c-1.141.858-40.087,30.068-40.852,30.643" transform="translate(-188.979)" fill="#fff"/>
            </g>
          </g>
        </g>
        <path id="パス_13191" data-name="パス 13191" d="M459.67,61.224V30.643C458.9,30.068,419.952.855,418.81,0c-1.143.855-40.09,30.068-40.854,30.643v61.29H459.67V80.309H389.578V61.224ZM389.578,36.456,418.81,14.527l29.235,21.929V49.6H389.578Z" transform="translate(-167.711)" fill="#fff"/>
        <path id="パス_13192" data-name="パス 13192" d="M473.588,255.944l-3.525-5.873-12.252,7.341-4.949-13.157H466.39V237.4H430.264v6.849h14.771l-19.4,8.75,2.817,6.248,19.444-8.768c.33.879.665,1.767,1,2.645l-24.6,11.361,2.871,6.222L451.3,259.559l1.115,2.964-.062.077-28.392,13.18,2.884,6.214L452.687,270v8.055h-7.614v6.852h14.461V269.564l11.5,9.235,4.29-5.339-13.23-10.627Z" transform="translate(-188.127 -105.344)" fill="#fff"/>
        <path id="パス_13193" data-name="パス 13193" d="M446.218,200.528v-6.949h-6.882v6.949l-27.8,12.6v12.731h6.637v-7.9s24.031-10.76,24.6-11.034c.572.274,24.6,11.034,24.6,11.034v7.9h6.64V213.126Z" transform="translate(-182.612 -85.897)" fill="#fff"/>
        <path id="パス_13194" data-name="パス 13194" d="M309.245,279.545H333.5V244.721h10.575v34.824h6.838V237.881H309.245Zm6.842-34.824h10.568V272.7H316.087Z" transform="translate(-137.222 -105.556)" fill="#fff"/>
        <path id="パス_13195" data-name="パス 13195" d="M34,212.292H9.076a8.942,8.942,0,0,0-8.932,8.931v43.39a8.942,8.942,0,0,0,8.932,8.933H34a8.943,8.943,0,0,0,8.933-8.933v-43.39A8.942,8.942,0,0,0,34,212.292m.98,52.321a.992.992,0,0,1-.98.979H9.076a.991.991,0,0,1-.978-.979v-43.39a.992.992,0,0,1,.978-.978H34a.992.992,0,0,1,.98.978Z" transform="translate(-0.064 -94.201)" fill="#fff"/>
        <path id="パス_13196" data-name="パス 13196" d="M134.277,212.292H109.352a8.941,8.941,0,0,0-8.931,8.931v48.345a3.977,3.977,0,1,0,7.954,0V221.223a.992.992,0,0,1,.977-.978h24.925a.992.992,0,0,1,.978.978v48.345a3.977,3.977,0,0,0,7.955,0V221.223a8.942,8.942,0,0,0-8.933-8.931" transform="translate(-44.56 -94.201)" fill="#fff"/>
        <path id="パス_13197" data-name="パス 13197" d="M234.554,212.292H209.631a8.942,8.942,0,0,0-8.933,8.931v43.39a8.942,8.942,0,0,0,8.933,8.932h29.878a3.976,3.976,0,1,0,0-7.953H209.631a.991.991,0,0,1-.978-.979v-17.7h25.9a8.942,8.942,0,0,0,8.932-8.933V221.223a8.941,8.941,0,0,0-8.932-8.931m.977,25.685a.991.991,0,0,1-.977.978h-25.9V221.223a.992.992,0,0,1,.978-.978h24.924a.991.991,0,0,1,.977.978Z" transform="translate(-89.056 -94.201)" fill="#fff"/>
      </g>
    </g>
  </g>
</svg>
